<svg version="1.1" id="Layer_1" xmlns="http://www.w3.org/2000/svg" xmlns:xlink="http://www.w3.org/1999/xlink" x="0px" y="0px"
	 width="100%" viewBox="0 0 3000 3000" enable-background="new 0 0 3000 3000" xml:space="preserve">
<path fill="#000000" opacity="1.000000" stroke="none" 
	d="
M3002.000000,1016.000000 
	C3002.000000,1678.611694 3002.000000,2340.223389 3002.000000,3001.917480 
	C2002.138184,3001.917480 1002.276306,3001.917480 2.207248,3001.917480 
	C2.207248,2002.221313 2.207248,1002.442627 2.207248,2.331971 
	C1001.999939,2.331971 2002.000000,2.331971 3002.000000,2.331971 
	C3002.000000,339.724365 3002.000000,677.362183 3002.000000,1016.000000 
M2709.441406,1484.493286 
	C2711.570557,1482.909180 2713.736572,1481.372192 2715.822266,1479.732788 
	C2723.353271,1473.812134 2729.157471,1466.331543 2735.391602,1459.124023 
	C2747.146729,1445.533936 2760.044922,1432.933960 2772.431152,1419.887695 
	C2775.356201,1416.807007 2778.328125,1413.739380 2780.947266,1410.405640 
	C2790.803223,1397.859619 2800.671875,1385.318115 2810.217285,1372.536865 
	C2813.906250,1367.597168 2816.746338,1362.023315 2819.971924,1356.737427 
	C2822.365479,1352.815063 2824.200195,1348.375732 2827.261230,1345.072266 
	C2834.142334,1337.646240 2840.517090,1330.145142 2845.837891,1321.310791 
	C2848.701904,1316.555298 2851.455566,1311.159546 2855.311768,1306.738037 
	C2857.347168,1304.404663 2858.640625,1301.388062 2860.082031,1298.583984 
	C2861.273438,1296.266724 2862.059082,1293.739868 2863.261963,1291.429688 
	C2864.890381,1288.302002 2866.708008,1285.269897 2868.517090,1282.240112 
	C2869.690674,1280.274780 2871.099854,1278.445923 2872.211426,1276.448853 
	C2873.607666,1273.939209 2874.859619,1271.344727 2876.077637,1268.741577 
	C2877.323730,1266.078491 2878.404053,1263.337769 2879.646484,1260.672974 
	C2881.150146,1257.448730 2882.817627,1254.300049 2884.286133,1251.060547 
	C2885.793701,1247.734131 2886.532959,1243.866455 2888.685547,1241.062622 
	C2894.444824,1233.560425 2901.300781,1226.817627 2902.600586,1216.762573 
	C2902.708496,1215.927124 2903.997314,1215.309204 2904.390625,1214.434204 
	C2905.699707,1211.521729 2907.148682,1208.621704 2908.007324,1205.566162 
	C2910.907227,1195.247314 2917.683350,1186.256592 2918.376221,1175.173096 
	C2918.428467,1174.340332 2919.666992,1173.646851 2920.052002,1172.757812 
	C2921.441895,1169.548340 2923.696289,1166.313110 2923.796143,1163.031982 
	C2923.979004,1157.003296 2928.244873,1153.751709 2930.769043,1149.242432 
	C2933.230713,1144.845215 2933.420654,1139.179199 2934.640869,1134.078125 
	C2934.708252,1133.797119 2935.034668,1133.520752 2935.308838,1133.354736 
	C2940.099609,1130.452148 2939.555176,1125.652588 2940.173828,1121.000000 
	C2940.819580,1116.146118 2941.642334,1110.838257 2944.156006,1106.840698 
	C2946.821533,1102.601929 2948.264160,1098.584106 2947.963135,1093.811157 
	C2946.995605,1078.477173 2951.485596,1064.125244 2956.122314,1049.880005 
	C2959.644043,1039.060303 2966.229736,1029.111938 2964.491943,1016.910461 
	C2964.230469,1015.075012 2965.038330,1012.901001 2965.869141,1011.125854 
	C2971.690918,998.687988 2971.669434,985.425415 2972.135254,972.094299 
	C2972.517090,961.166199 2974.097900,950.274231 2975.297119,939.382690 
	C2976.057129,932.479797 2977.932373,925.598877 2977.864502,918.722412 
	C2977.487549,880.438904 2976.774170,842.157410 2975.928467,803.880676 
	C2975.716064,794.261597 2974.635742,784.659485 2973.879639,775.055542 
	C2973.306152,767.772278 2972.760742,760.481567 2971.930420,753.225342 
	C2971.212891,746.956543 2971.175293,740.318176 2968.943604,734.579224 
	C2965.101562,724.696899 2964.169678,714.671265 2963.879395,704.308777 
	C2963.722656,698.712585 2963.252441,692.896057 2961.564941,687.613098 
	C2955.600342,668.943787 2950.765137,650.049988 2947.820557,630.664490 
	C2947.490723,628.492920 2946.689941,625.940796 2945.205811,624.484314 
	C2941.286133,620.638184 2940.885742,615.846558 2939.870605,610.899170 
	C2937.791260,600.763489 2930.492676,592.256531 2930.245850,581.436218 
	C2930.234619,580.947144 2929.179199,580.557678 2928.949463,579.985657 
	C2927.260742,575.785522 2925.593994,571.573975 2924.050781,567.318848 
	C2922.956787,564.302185 2922.177490,561.170227 2921.059326,558.163696 
	C2919.482666,553.925110 2917.624512,549.790527 2916.073730,545.543274 
	C2914.972168,542.526062 2914.374268,539.319336 2913.199707,536.335815 
	C2911.657471,532.419189 2909.720215,528.659912 2908.050049,524.790955 
	C2907.274658,522.994568 2907.262451,520.526611 2905.991699,519.342590 
	C2898.772217,512.615051 2897.103516,502.128052 2889.249512,495.630280 
	C2886.327637,493.212982 2885.871094,487.872803 2884.152832,483.925507 
	C2882.882568,481.007660 2881.459717,478.149811 2879.972656,475.335114 
	C2878.904053,473.312927 2877.030273,471.543610 2876.533447,469.422943 
	C2874.718994,461.681122 2866.551758,456.946899 2866.714355,448.265747 
	C2866.730713,447.388306 2864.696777,446.616486 2863.976074,445.550812 
	C2862.542480,443.431091 2861.329834,441.158203 2860.083740,438.916351 
	C2858.687988,436.404785 2857.396973,433.834656 2855.983398,431.333435 
	C2854.857178,429.340515 2853.025635,427.549957 2852.532227,425.430939 
	C2850.729248,417.686462 2842.480957,412.959137 2842.797852,404.276031 
	C2842.815430,403.795715 2842.003174,403.263000 2841.540771,402.790527 
	C2836.532471,397.675110 2831.289551,392.765015 2826.594238,387.377502 
	C2824.042969,384.450409 2822.298584,380.780243 2820.429443,377.316162 
	C2819.504639,375.602600 2819.557617,373.262207 2818.419922,371.779541 
	C2812.875000,364.553619 2807.041748,357.549988 2801.378418,350.413940 
	C2794.469238,341.708618 2787.506348,333.041901 2780.794922,324.185608 
	C2774.979980,316.512634 2771.630371,306.712646 2761.755127,302.615753 
	C2761.181152,302.377655 2760.758057,301.744110 2760.300781,301.260284 
	C2753.753418,294.332214 2747.506592,287.088318 2740.606934,280.531067 
	C2727.032227,267.629883 2713.093018,255.112000 2699.311035,242.428604 
	C2697.126953,240.418579 2694.350830,238.737534 2692.916016,236.280884 
	C2685.705078,223.933899 2673.801270,216.447845 2663.112061,207.985977 
	C2651.224121,198.575180 2637.979248,190.884674 2625.377686,182.367355 
	C2607.820068,170.500061 2591.000732,157.500259 2572.032715,147.798904 
	C2570.290039,146.907516 2568.901367,145.345444 2567.282715,144.186249 
	C2562.469238,140.738815 2557.953369,136.688583 2552.731445,134.033295 
	C2533.487549,124.247650 2513.912354,115.115295 2494.635254,105.392960 
	C2464.893799,90.392952 2434.709717,76.663414 2402.277588,68.281715 
	C2385.564453,63.962353 2368.712646,59.603508 2352.703613,53.285480 
	C2334.124512,45.953114 2314.609863,43.915493 2295.385986,40.429039 
	C2272.502930,36.278931 2249.356689,33.458023 2226.245361,30.729427 
	C2207.776123,28.548903 2189.445801,24.917538 2170.619385,25.975883 
	C2150.366455,27.114429 2130.066406,27.506643 2109.780762,27.945272 
	C2096.787354,28.226225 2083.782959,27.958817 2070.783936,28.031300 
	C2067.127930,28.051683 2063.432129,28.121593 2059.825439,28.651855 
	C2039.092407,31.700312 2018.370850,34.830276 1997.664307,38.054745 
	C1972.759399,41.933006 1947.653076,43.929306 1923.628784,53.249996 
	C1901.991821,61.644413 1879.409546,67.787819 1856.942139,73.794037 
	C1840.425049,78.209480 1824.579590,83.816811 1809.661621,92.113968 
	C1806.466064,93.891342 1803.211304,95.576500 1799.905762,97.139542 
	C1775.283203,108.782532 1750.946655,121.098846 1725.917358,131.792755 
	C1702.030518,141.998535 1683.597046,160.110825 1661.868530,173.379761 
	C1652.010620,179.399704 1642.954224,186.768295 1633.732178,193.785202 
	C1617.752075,205.944229 1599.723999,215.328812 1585.465576,229.839813 
	C1578.557373,236.870255 1570.980591,243.239517 1563.972656,250.176956 
	C1556.723999,257.352692 1549.983765,265.045044 1542.679932,272.161133 
	C1534.910400,279.730774 1526.599487,286.743073 1518.788452,294.272156 
	C1512.096680,300.722260 1507.576660,301.716919 1499.537109,297.616699 
	C1488.005615,291.735565 1476.604858,285.577423 1464.906738,280.048645 
	C1448.706299,272.391998 1431.991699,265.780273 1416.031006,257.670807 
	C1398.743530,248.887314 1380.479248,242.813599 1362.289673,236.561295 
	C1345.933716,230.939255 1329.194824,226.414917 1312.569702,221.597076 
	C1297.269531,217.163132 1282.047974,212.293427 1266.516602,208.860703 
	C1245.738647,204.268402 1224.702271,200.839401 1203.759033,197.008316 
	C1200.501953,196.412521 1197.149536,196.340515 1193.842163,196.016708 
	C1182.929077,194.948257 1172.016113,193.879135 1161.103760,192.803406 
	C1144.897095,191.205795 1128.716187,188.640121 1112.479004,188.213333 
	C1083.833496,187.460419 1055.153809,188.000946 1026.488403,188.028717 
	C1023.492554,188.031631 1020.476624,188.042313 1017.504333,188.364960 
	C1000.984558,190.158340 984.517029,192.903519 967.953003,193.710327 
	C941.864929,194.981064 916.545349,200.712067 891.234680,206.055161 
	C872.133057,210.087509 852.634338,212.435791 834.098450,219.664398 
	C818.355103,225.803986 801.603821,229.330322 785.376038,234.267975 
	C776.801636,236.876938 768.236450,239.646515 759.944336,243.024063 
	C746.102539,248.662125 732.529724,254.956863 718.754822,260.764252 
	C708.346680,265.152222 697.491943,268.586395 687.387146,273.563934 
	C672.499207,280.897583 658.416870,289.896301 643.414124,296.959564 
	C625.302368,305.486511 608.671387,316.390137 591.884399,327.031250 
	C577.640564,336.060303 564.011108,346.069305 550.230774,355.815735 
	C537.046448,365.140594 523.583008,374.146332 511.030060,384.269226 
	C494.893127,397.282288 479.497467,411.218781 463.874756,424.863159 
	C457.897217,430.083740 451.937469,435.364288 446.393860,441.032440 
	C439.042145,448.549377 432.165314,456.528320 424.976990,464.208160 
	C414.871948,475.004272 404.549622,485.599182 394.554749,496.495239 
	C389.241150,502.287903 384.449921,508.557678 379.372406,514.569458 
	C372.450012,522.765564 364.716187,530.404541 358.740143,539.236328 
	C352.535156,548.406372 344.560608,556.092285 339.019196,565.907166 
	C332.608887,577.261169 323.089813,586.661011 315.365356,597.297058 
	C307.086487,608.696472 301.045105,621.291626 293.208893,632.846985 
	C288.663727,639.549316 282.965424,645.878296 280.216370,653.278137 
	C277.307312,661.108826 270.215607,665.864624 268.239410,674.456360 
	C265.374725,686.911072 255.187027,696.417480 251.940903,709.037109 
	C251.720184,709.895142 250.529327,710.456848 250.041275,711.301697 
	C248.604950,713.788025 247.253723,716.326233 245.947266,718.884094 
	C244.477646,721.761353 243.093155,724.682068 241.671967,727.584045 
	C240.406631,730.167786 238.896545,732.662842 237.922150,735.352112 
	C234.952606,743.547791 228.362854,750.199341 227.694000,759.381714 
	C227.655396,759.911560 226.957581,760.518921 226.421570,760.866638 
	C222.985519,763.095642 222.260498,766.507263 221.636978,770.270813 
	C221.163437,773.129150 220.354355,776.739685 218.353638,778.380920 
	C213.044800,782.735840 215.034897,788.852600 213.270294,793.972961 
	C211.489014,799.141785 208.430603,803.860657 206.132431,808.868774 
	C205.616119,809.993835 206.231277,811.602234 205.820038,812.817017 
	C202.306793,823.195129 199.786011,834.136475 194.623322,843.634705 
	C191.963165,848.528748 190.288437,852.797241 189.748764,858.151245 
	C189.325653,862.349060 188.664719,867.364319 186.127701,870.309143 
	C182.383301,874.655396 182.346039,879.153137 181.889084,884.136414 
	C181.348206,890.035034 181.759109,897.201050 178.569702,901.391174 
	C174.145142,907.203918 174.614120,912.944397 173.830383,919.107056 
	C173.134491,924.578918 172.267029,930.566772 169.460632,935.071838 
	C166.959183,939.087402 165.968063,942.756897 166.003525,947.108521 
	C166.074799,955.856079 164.749710,964.185364 160.996231,972.311646 
	C158.975281,976.687134 158.572784,981.952393 158.134308,986.877930 
	C157.663177,992.170166 158.214218,997.545227 157.949722,1002.865784 
	C157.390472,1014.115845 156.934433,1025.314331 152.373276,1036.027344 
	C150.489685,1040.451416 150.307281,1045.764526 150.092163,1050.705566 
	C149.209518,1070.977539 148.614182,1091.261841 147.904007,1111.541260 
	C147.869064,1112.539062 147.693146,1113.532959 147.675140,1114.530273 
	C147.176804,1142.145752 146.069473,1169.768921 146.402863,1197.374634 
	C146.659409,1218.616455 148.892822,1239.828491 149.927841,1261.069336 
	C150.458755,1271.964844 148.579529,1283.160889 155.283798,1293.027100 
	C155.967667,1294.033569 155.940338,1295.594849 156.041336,1296.914185 
	C156.725677,1305.854614 157.255554,1314.807983 158.041367,1323.739136 
	C158.505798,1329.017334 158.251831,1334.725952 160.241028,1339.428833 
	C164.773697,1350.144897 166.099426,1361.131470 166.124481,1372.542603 
	C166.130707,1375.378662 166.592255,1378.962524 168.311447,1380.903320 
	C173.183319,1386.403320 173.909500,1392.817383 173.951355,1399.530518 
	C174.000748,1407.454590 172.899002,1415.601440 179.885742,1421.682617 
	C180.550995,1422.261597 180.887482,1423.484253 180.958160,1424.439087 
	C181.640793,1433.661987 182.446030,1442.819824 188.908447,1450.271973 
	C189.301682,1450.725464 189.446823,1451.536011 189.436691,1452.176025 
	C189.297699,1460.959473 190.770493,1469.217041 196.959045,1476.001953 
	C197.166550,1476.229492 197.227386,1476.610596 197.307053,1476.932373 
	C199.935501,1487.545044 206.219406,1497.111328 206.260818,1508.494019 
	C206.266312,1510.003418 207.165421,1511.710938 208.111862,1512.983643 
	C215.463623,1522.869141 215.043579,1535.929443 221.698318,1546.106201 
	C222.336792,1547.082642 221.869904,1548.734375 222.091034,1550.043213 
	C222.366028,1551.670776 222.272141,1553.964111 223.288437,1554.767700 
	C231.635422,1561.369263 228.706299,1573.463501 236.492798,1580.808472 
	C239.466537,1583.613281 240.131912,1589.610596 243.956665,1593.145508 
	C245.223404,1594.316162 245.291763,1596.798462 245.872787,1598.691895 
	C246.450714,1600.575195 246.441299,1602.957886 247.626816,1604.283325 
	C254.635178,1612.119751 256.293488,1623.176270 264.022705,1630.682983 
	C266.699890,1633.283081 268.125397,1637.616211 269.094086,1641.419800 
	C270.331696,1646.279175 272.698944,1650.228760 275.053925,1654.545654 
	C278.328979,1660.548828 282.213440,1666.066528 285.787048,1671.820557 
	C289.559601,1677.894897 293.313538,1683.981567 297.146912,1690.017334 
	C301.293488,1696.546021 305.611389,1702.967041 309.688904,1709.537720 
	C313.290405,1715.341431 316.340118,1721.510132 320.209412,1727.120361 
	C327.097809,1737.108032 334.490692,1746.746216 341.541840,1756.623779 
	C347.784943,1765.369629 353.686340,1774.363159 360.064697,1783.006714 
	C363.159698,1787.200806 367.252258,1790.649048 370.456055,1794.774536 
	C378.947845,1805.708740 391.423706,1812.683716 398.885376,1824.957886 
	C401.788086,1829.732666 404.923431,1834.947876 408.635742,1839.269775 
	C412.727386,1844.033569 413.643036,1849.086548 414.080048,1854.827881 
	C414.347229,1858.338257 414.488983,1862.739990 416.567383,1865.048706 
	C421.039978,1870.017334 421.892090,1875.526367 422.043182,1881.633423 
	C422.108124,1884.259277 421.719330,1887.907593 423.211304,1889.310913 
	C429.503479,1895.229248 429.973816,1902.679443 430.393219,1910.412109 
	C430.495575,1912.298950 431.356018,1914.386719 432.483704,1915.932983 
	C436.839355,1921.904907 437.657410,1928.694092 438.129364,1935.784180 
	C438.357849,1939.216431 439.126038,1943.278564 441.194336,1945.776978 
	C444.928711,1950.287476 445.725586,1955.184082 446.037628,1960.587891 
	C446.225800,1963.846436 445.971893,1967.811279 447.682770,1970.186646 
	C456.530823,1982.470947 458.718658,1996.830078 462.436371,2010.944946 
	C464.804504,2019.935669 470.438293,2028.090210 471.219360,2037.793457 
	C471.263123,2038.336914 471.920349,2038.950562 472.442566,2039.316895 
	C476.687653,2042.294922 477.776459,2046.599854 478.186676,2051.479980 
	C478.365204,2053.604004 479.535950,2055.892090 480.874725,2057.628906 
	C487.095673,2065.698242 487.671021,2076.421631 493.788879,2084.547119 
	C495.679535,2087.058350 496.796326,2090.148926 498.295410,2092.959473 
	C499.373047,2094.979736 501.276062,2096.904785 501.464630,2098.993896 
	C502.247742,2107.669678 510.879517,2112.464600 511.899200,2120.906250 
	C522.920349,2129.841309 524.869751,2144.302734 532.711243,2155.344727 
	C538.207397,2163.083740 542.668518,2171.950928 547.177856,2180.463867 
	C550.391296,2186.530518 554.107300,2192.127197 557.812012,2197.797119 
	C562.019226,2204.236328 566.286438,2210.645508 570.772705,2216.891357 
	C576.151489,2224.379639 582.650635,2231.202393 587.094849,2239.187256 
	C592.534485,2248.960449 598.387268,2258.241699 605.886475,2266.528564 
	C620.125671,2282.262939 632.520386,2299.666016 648.633850,2313.711426 
	C650.120667,2315.007324 651.552917,2316.556152 652.479065,2318.273926 
	C658.014893,2328.543945 666.940491,2335.987305 674.523071,2344.496582 
	C679.965393,2350.603760 686.897827,2355.355469 692.861694,2361.031250 
	C704.515381,2372.121826 715.955505,2383.436768 727.486633,2394.656006 
	C729.839600,2396.945312 732.212769,2399.213867 734.563904,2401.505127 
	C740.687256,2407.472656 746.187683,2414.299072 753.041199,2419.255127 
	C771.541321,2432.632568 790.601379,2445.237061 809.469177,2458.104248 
	C819.844910,2465.180420 830.305237,2472.132568 840.681152,2479.208496 
	C848.338257,2484.430176 855.626953,2490.260498 863.593933,2494.945312 
	C883.922302,2506.900391 904.310486,2518.794189 925.118164,2529.879883 
	C939.472168,2537.527344 954.525635,2543.874268 969.340088,2550.641113 
	C986.269775,2558.374512 1003.188721,2566.145508 1020.302856,2573.453857 
	C1026.986206,2576.308105 1034.234253,2577.813232 1041.143188,2580.172607 
	C1053.076294,2584.248291 1064.733521,2589.305908 1076.881226,2592.546875 
	C1112.936157,2602.166992 1149.150635,2611.195068 1185.355957,2620.241455 
	C1194.706909,2622.578125 1204.194946,2624.517578 1213.722290,2625.966553 
	C1235.417358,2629.266357 1257.137329,2632.466309 1278.920044,2635.105469 
	C1298.048462,2637.423340 1317.075439,2640.584229 1336.528687,2640.145020 
	C1362.514282,2639.558594 1388.526611,2640.264160 1414.520752,2639.911133 
	C1433.140747,2639.657959 1451.756104,2638.712158 1470.360596,2637.810059 
	C1479.318359,2637.375488 1488.346436,2636.925049 1497.169678,2635.448242 
	C1527.352905,2630.395996 1557.479492,2624.995117 1587.580933,2619.472656 
	C1595.095215,2618.093994 1602.429810,2615.742432 1609.854126,2613.866211 
	C1634.081665,2607.742188 1658.601318,2602.572754 1682.461426,2595.252441 
	C1706.841309,2587.772705 1730.385498,2577.606445 1754.644531,2569.684570 
	C1779.807251,2561.467285 1802.885132,2548.960938 1826.263916,2537.036377 
	C1841.026978,2529.506348 1855.270386,2520.963867 1869.922974,2513.208496 
	C1883.448853,2506.049072 1897.394409,2499.667480 1910.775757,2492.258301 
	C1916.098877,2489.310791 1920.361084,2484.470459 1925.185303,2480.590088 
	C1927.734131,2478.539551 1930.367432,2476.567139 1933.118530,2474.802734 
	C1935.870728,2473.037598 1939.029785,2471.863770 1941.645020,2469.935059 
	C1964.827881,2452.840088 1987.965332,2435.682861 2011.036011,2418.436523 
	C2019.263184,2412.286377 2028.053833,2406.614258 2035.203979,2399.360352 
	C2047.404419,2386.982910 2059.591797,2374.693359 2073.072510,2363.674072 
	C2079.952148,2358.050537 2086.349854,2351.794678 2092.631592,2345.492188 
	C2102.534424,2335.556885 2112.624023,2326.103760 2120.446289,2313.893311 
	C2126.393066,2304.610352 2136.781006,2298.052490 2143.790283,2288.756104 
	C2149.460938,2281.235107 2156.649658,2274.875000 2162.920410,2267.783936 
	C2166.140137,2264.142822 2169.161133,2260.232666 2171.673828,2256.082031 
	C2175.548584,2249.681641 2178.766357,2242.886230 2182.554688,2236.429443 
	C2184.217773,2233.594727 2186.107178,2230.414795 2188.747070,2228.722412 
	C2196.370605,2223.835449 2199.046631,2215.381592 2204.093506,2208.688965 
	C2207.981689,2203.532959 2210.604492,2197.441162 2214.043701,2191.924316 
	C2218.859375,2184.199707 2223.900146,2176.614746 2228.865234,2168.983643 
	C2232.405273,2163.542236 2236.040527,2158.161621 2239.511475,2152.677002 
	C2241.196045,2150.014648 2243.189209,2147.340820 2244.020264,2144.384766 
	C2246.319092,2136.209229 2249.850342,2128.840576 2255.838379,2122.738281 
	C2256.988770,2121.565918 2259.143555,2120.241211 2259.041016,2119.156250 
	C2258.166992,2109.906738 2266.620361,2104.959229 2269.195557,2097.056152 
	C2271.133057,2091.109619 2276.587402,2085.906494 2277.464844,2078.854492 
	C2277.532227,2078.312988 2278.208008,2077.663086 2278.761719,2077.394287 
	C2284.807617,2074.461182 2283.117676,2068.313965 2284.816162,2063.516602 
	C2286.640381,2058.363037 2290.589355,2053.817627 2291.729248,2048.595947 
	C2294.163574,2037.445068 2301.970459,2028.226196 2302.662842,2016.570312 
	C2302.679688,2016.287354 2302.964355,2015.946777 2303.217773,2015.762573 
	C2307.874756,2012.379395 2306.990967,2007.107666 2308.310791,2002.409302 
	C2311.254883,1991.927246 2314.611328,1981.317017 2319.725342,1971.793213 
	C2322.199463,1967.185913 2323.626221,1963.167969 2324.143311,1958.157227 
	C2324.675537,1952.996826 2325.266846,1947.215454 2327.945312,1943.071899 
	C2330.889160,1938.517944 2332.001953,1934.226562 2332.035156,1929.133423 
	C2332.078857,1922.395996 2333.279297,1916.119263 2337.518066,1910.343750 
	C2339.455078,1907.704346 2339.411133,1903.504761 2339.944580,1899.964355 
	C2341.032227,1892.743042 2340.447998,1884.866943 2343.214355,1878.398926 
	C2347.043701,1869.444214 2348.123779,1860.574341 2348.066162,1851.179077 
	C2348.046143,1847.881958 2348.555664,1844.536377 2349.206299,1841.289673 
	C2350.695557,1833.858643 2353.107910,1826.548462 2353.909424,1819.057007 
	C2355.640625,1802.876953 2356.848389,1786.628540 2357.810059,1770.380859 
	C2359.401123,1743.498657 2360.684814,1716.597656 2361.978271,1689.698853 
	C2362.430664,1680.297729 2362.522705,1679.828125 2371.414551,1677.160889 
	C2379.368408,1674.775024 2387.553711,1673.066162 2395.339844,1670.239746 
	C2406.257812,1666.276855 2416.888916,1661.527832 2427.664551,1657.168701 
	C2433.500488,1654.807861 2439.393311,1652.588867 2445.239746,1650.253906 
	C2462.490479,1643.364502 2479.803223,1636.621094 2496.923584,1629.421021 
	C2501.116455,1627.657715 2504.458496,1623.959839 2508.555176,1621.860107 
	C2518.623535,1616.699341 2529.095703,1612.308838 2539.054688,1606.955688 
	C2555.142090,1598.308228 2571.866211,1590.418579 2586.624023,1579.840332 
	C2602.714844,1568.306519 2619.870605,1558.305176 2635.065186,1545.290527 
	C2643.952148,1537.678589 2653.438721,1530.258423 2663.072998,1523.601074 
	C2678.656006,1512.833130 2689.951904,1496.999146 2706.886963,1488.089966 
	C2707.665771,1487.680176 2708.034180,1486.490234 2709.441406,1484.493286 
z"/>
<path fill="#0F1010" opacity="1.000000" stroke="none" 
	d="
M2709.017578,1485.078369 
	C2708.034180,1486.490234 2707.665771,1487.680176 2706.886963,1488.089966 
	C2689.951904,1496.999146 2678.656006,1512.833130 2663.072998,1523.601074 
	C2653.438721,1530.258423 2643.952148,1537.678589 2635.065186,1545.290527 
	C2619.870605,1558.305176 2602.714844,1568.306519 2586.624023,1579.840332 
	C2571.866211,1590.418579 2555.142090,1598.308228 2539.054688,1606.955688 
	C2529.095703,1612.308838 2518.623535,1616.699341 2508.555176,1621.860107 
	C2504.458496,1623.959839 2501.116455,1627.657715 2496.923584,1629.421021 
	C2479.803223,1636.621094 2462.490479,1643.364502 2445.239746,1650.253906 
	C2439.393311,1652.588867 2433.500488,1654.807861 2427.664551,1657.168701 
	C2416.888916,1661.527832 2406.257812,1666.276855 2395.339844,1670.239746 
	C2387.553711,1673.066162 2379.368408,1674.775024 2371.414551,1677.160889 
	C2362.522705,1679.828125 2362.430664,1680.297729 2361.978271,1689.698853 
	C2360.684814,1716.597656 2359.401123,1743.498657 2357.810059,1770.380859 
	C2356.848389,1786.628540 2355.640625,1802.876953 2353.909424,1819.057007 
	C2353.107910,1826.548462 2350.695557,1833.858643 2349.206299,1841.289673 
	C2348.555664,1844.536377 2348.046143,1847.881958 2348.066162,1851.179077 
	C2348.123779,1860.574341 2347.043701,1869.444214 2343.214355,1878.398926 
	C2340.447998,1884.866943 2341.032227,1892.743042 2339.944580,1899.964355 
	C2339.411133,1903.504761 2339.455078,1907.704346 2337.518066,1910.343750 
	C2333.279297,1916.119263 2332.078857,1922.395996 2332.035156,1929.133423 
	C2332.001953,1934.226562 2330.889160,1938.517944 2327.945312,1943.071899 
	C2325.266846,1947.215454 2324.675537,1952.996826 2324.143311,1958.157227 
	C2323.626221,1963.167969 2322.199463,1967.185913 2319.725342,1971.793213 
	C2314.611328,1981.317017 2311.254883,1991.927246 2308.310791,2002.409302 
	C2306.990967,2007.107666 2307.874756,2012.379395 2303.217773,2015.762573 
	C2302.964355,2015.946777 2302.679688,2016.287354 2302.662842,2016.570312 
	C2301.970459,2028.226196 2294.163574,2037.445068 2291.729248,2048.595947 
	C2290.589355,2053.817627 2286.640381,2058.363037 2284.816162,2063.516602 
	C2283.117676,2068.313965 2284.807617,2074.461182 2278.761719,2077.394287 
	C2278.208008,2077.663086 2277.532227,2078.312988 2277.464844,2078.854492 
	C2276.587402,2085.906494 2271.133057,2091.109619 2269.195557,2097.056152 
	C2266.620361,2104.959229 2258.166992,2109.906738 2259.041016,2119.156250 
	C2259.143555,2120.241211 2256.988770,2121.565918 2255.838379,2122.738281 
	C2249.850342,2128.840576 2246.319092,2136.209229 2244.020264,2144.384766 
	C2243.189209,2147.340820 2241.196045,2150.014648 2239.511475,2152.677002 
	C2236.040527,2158.161621 2232.405273,2163.542236 2228.865234,2168.983643 
	C2223.900146,2176.614746 2218.859375,2184.199707 2214.043701,2191.924316 
	C2210.604492,2197.441162 2207.981689,2203.532959 2204.093506,2208.688965 
	C2199.046631,2215.381592 2196.370605,2223.835449 2188.747070,2228.722412 
	C2186.107178,2230.414795 2184.217773,2233.594727 2182.554688,2236.429443 
	C2178.766357,2242.886230 2175.548584,2249.681641 2171.673828,2256.082031 
	C2169.161133,2260.232666 2166.140137,2264.142822 2162.920410,2267.783936 
	C2156.649658,2274.875000 2149.460938,2281.235107 2143.790283,2288.756104 
	C2136.781006,2298.052490 2126.393066,2304.610352 2120.446289,2313.893311 
	C2112.624023,2326.103760 2102.534424,2335.556885 2092.631592,2345.492188 
	C2086.349854,2351.794678 2079.952148,2358.050537 2073.072510,2363.674072 
	C2059.591797,2374.693359 2047.404419,2386.982910 2035.203979,2399.360352 
	C2028.053833,2406.614258 2019.263184,2412.286377 2011.036011,2418.436523 
	C1987.965332,2435.682861 1964.827881,2452.840088 1941.645020,2469.935059 
	C1939.029785,2471.863770 1935.870728,2473.037598 1933.118530,2474.802734 
	C1930.367432,2476.567139 1927.734131,2478.539551 1925.185303,2480.590088 
	C1920.361084,2484.470459 1916.098877,2489.310791 1910.775757,2492.258301 
	C1897.394409,2499.667480 1883.448853,2506.049072 1869.922974,2513.208496 
	C1855.270386,2520.963867 1841.026978,2529.506348 1826.263916,2537.036377 
	C1802.885132,2548.960938 1779.807251,2561.467285 1754.644531,2569.684570 
	C1730.385498,2577.606445 1706.841309,2587.772705 1682.461426,2595.252441 
	C1658.601318,2602.572754 1634.081665,2607.742188 1609.854126,2613.866211 
	C1602.429810,2615.742432 1595.095215,2618.093994 1587.580933,2619.472656 
	C1557.479492,2624.995117 1527.352905,2630.395996 1497.169678,2635.448242 
	C1488.346436,2636.925049 1479.318359,2637.375488 1470.360596,2637.810059 
	C1451.756104,2638.712158 1433.140747,2639.657959 1414.520752,2639.911133 
	C1388.526611,2640.264160 1362.514282,2639.558594 1336.528687,2640.145020 
	C1317.075439,2640.584229 1298.048462,2637.423340 1278.920044,2635.105469 
	C1257.137329,2632.466309 1235.417358,2629.266357 1213.722290,2625.966553 
	C1204.194946,2624.517578 1194.706909,2622.578125 1185.355957,2620.241455 
	C1149.150635,2611.195068 1112.936157,2602.166992 1076.881226,2592.546875 
	C1064.733521,2589.305908 1053.076294,2584.248291 1041.143188,2580.172607 
	C1034.234253,2577.813232 1026.986206,2576.308105 1020.302856,2573.453857 
	C1003.188721,2566.145508 986.269775,2558.374512 969.340088,2550.641113 
	C954.525635,2543.874268 939.472168,2537.527344 925.118164,2529.879883 
	C904.310486,2518.794189 883.922302,2506.900391 863.593933,2494.945312 
	C855.626953,2490.260498 848.338257,2484.430176 840.681152,2479.208496 
	C830.305237,2472.132568 819.844910,2465.180420 809.469177,2458.104248 
	C790.601379,2445.237061 771.541321,2432.632568 753.041199,2419.255127 
	C746.187683,2414.299072 740.687256,2407.472656 734.563904,2401.505127 
	C732.212769,2399.213867 729.839600,2396.945312 727.486633,2394.656006 
	C715.955505,2383.436768 704.515381,2372.121826 692.861694,2361.031250 
	C686.897827,2355.355469 679.965393,2350.603760 674.523071,2344.496582 
	C666.940491,2335.987305 658.014893,2328.543945 652.479065,2318.273926 
	C651.552917,2316.556152 650.120667,2315.007324 648.633850,2313.711426 
	C632.520386,2299.666016 620.125671,2282.262939 605.886475,2266.528564 
	C598.387268,2258.241699 592.534485,2248.960449 587.094849,2239.187256 
	C582.650635,2231.202393 576.151489,2224.379639 570.772705,2216.891357 
	C566.286438,2210.645508 562.019226,2204.236328 557.812012,2197.797119 
	C554.107300,2192.127197 550.391296,2186.530518 547.177856,2180.463867 
	C542.668518,2171.950928 538.207397,2163.083740 532.711243,2155.344727 
	C524.869751,2144.302734 522.920349,2129.841309 511.899200,2120.906250 
	C510.879517,2112.464600 502.247742,2107.669678 501.464630,2098.993896 
	C501.276062,2096.904785 499.373047,2094.979736 498.295410,2092.959473 
	C496.796326,2090.148926 495.679535,2087.058350 493.788879,2084.547119 
	C487.671021,2076.421631 487.095673,2065.698242 480.874725,2057.628906 
	C479.535950,2055.892090 478.365204,2053.604004 478.186676,2051.479980 
	C477.776459,2046.599854 476.687653,2042.294922 472.442566,2039.316895 
	C471.920349,2038.950562 471.263123,2038.336914 471.219360,2037.793457 
	C470.438293,2028.090210 464.804504,2019.935669 462.436371,2010.944946 
	C458.718658,1996.830078 456.530823,1982.470947 447.682770,1970.186646 
	C445.971893,1967.811279 446.225800,1963.846436 446.037628,1960.587891 
	C445.725586,1955.184082 444.928711,1950.287476 441.194336,1945.776978 
	C439.126038,1943.278564 438.357849,1939.216431 438.129364,1935.784180 
	C437.657410,1928.694092 436.839355,1921.904907 432.483704,1915.932983 
	C431.356018,1914.386719 430.495575,1912.298950 430.393219,1910.412109 
	C429.973816,1902.679443 429.503479,1895.229248 423.211304,1889.310913 
	C421.719330,1887.907593 422.108124,1884.259277 422.043182,1881.633423 
	C421.892090,1875.526367 421.039978,1870.017334 416.567383,1865.048706 
	C414.488983,1862.739990 414.347229,1858.338257 414.080048,1854.827881 
	C413.643036,1849.086548 412.727386,1844.033569 408.635742,1839.269775 
	C404.923431,1834.947876 401.788086,1829.732666 398.885376,1824.957886 
	C391.423706,1812.683716 378.947845,1805.708740 370.456055,1794.774536 
	C367.252258,1790.649048 363.159698,1787.200806 360.064697,1783.006714 
	C353.686340,1774.363159 347.784943,1765.369629 341.541840,1756.623779 
	C334.490692,1746.746216 327.097809,1737.108032 320.209412,1727.120361 
	C316.340118,1721.510132 313.290405,1715.341431 309.688904,1709.537720 
	C305.611389,1702.967041 301.293488,1696.546021 297.146912,1690.017334 
	C293.313538,1683.981567 289.559601,1677.894897 285.787048,1671.820557 
	C282.213440,1666.066528 278.328979,1660.548828 275.053925,1654.545654 
	C272.698944,1650.228760 270.331696,1646.279175 269.094086,1641.419800 
	C268.125397,1637.616211 266.699890,1633.283081 264.022705,1630.682983 
	C256.293488,1623.176270 254.635178,1612.119751 247.626816,1604.283325 
	C246.441299,1602.957886 246.450714,1600.575195 245.872787,1598.691895 
	C245.291763,1596.798462 245.223404,1594.316162 243.956665,1593.145508 
	C240.131912,1589.610596 239.466537,1583.613281 236.492798,1580.808472 
	C228.706299,1573.463501 231.635422,1561.369263 223.288437,1554.767700 
	C222.272141,1553.964111 222.366028,1551.670776 222.091034,1550.043213 
	C221.869904,1548.734375 222.336792,1547.082642 221.698318,1546.106201 
	C215.043579,1535.929443 215.463623,1522.869141 208.111862,1512.983643 
	C207.165421,1511.710938 206.266312,1510.003418 206.260818,1508.494019 
	C206.219406,1497.111328 199.935501,1487.545044 197.307053,1476.932373 
	C197.227386,1476.610596 197.166550,1476.229492 196.959045,1476.001953 
	C190.770493,1469.217041 189.297699,1460.959473 189.436691,1452.176025 
	C189.446823,1451.536011 189.301682,1450.725464 188.908447,1450.271973 
	C182.446030,1442.819824 181.640793,1433.661987 180.958160,1424.439087 
	C180.887482,1423.484253 180.550995,1422.261597 179.885742,1421.682617 
	C172.899002,1415.601440 174.000748,1407.454590 173.951355,1399.530518 
	C173.909500,1392.817383 173.183319,1386.403320 168.311447,1380.903320 
	C166.592255,1378.962524 166.130707,1375.378662 166.124481,1372.542603 
	C166.099426,1361.131470 164.773697,1350.144897 160.241028,1339.428833 
	C158.251831,1334.725952 158.505798,1329.017334 158.041367,1323.739136 
	C157.255554,1314.807983 156.725677,1305.854614 156.041336,1296.914185 
	C155.940338,1295.594849 155.967667,1294.033569 155.283798,1293.027100 
	C148.579529,1283.160889 150.458755,1271.964844 149.927841,1261.069336 
	C148.892822,1239.828491 146.659409,1218.616455 146.402863,1197.374634 
	C146.069473,1169.768921 147.176804,1142.145752 147.675140,1114.530273 
	C147.693146,1113.532959 147.869064,1112.539062 147.904007,1111.541260 
	C148.614182,1091.261841 149.209518,1070.977539 150.092163,1050.705566 
	C150.307281,1045.764526 150.489685,1040.451416 152.373276,1036.027344 
	C156.934433,1025.314331 157.390472,1014.115845 157.949722,1002.865784 
	C158.214218,997.545227 157.663177,992.170166 158.134308,986.877930 
	C158.572784,981.952393 158.975281,976.687134 160.996231,972.311646 
	C164.749710,964.185364 166.074799,955.856079 166.003525,947.108521 
	C165.968063,942.756897 166.959183,939.087402 169.460632,935.071838 
	C172.267029,930.566772 173.134491,924.578918 173.830383,919.107056 
	C174.614120,912.944397 174.145142,907.203918 178.569702,901.391174 
	C181.759109,897.201050 181.348206,890.035034 181.889084,884.136414 
	C182.346039,879.153137 182.383301,874.655396 186.127701,870.309143 
	C188.664719,867.364319 189.325653,862.349060 189.748764,858.151245 
	C190.288437,852.797241 191.963165,848.528748 194.623322,843.634705 
	C199.786011,834.136475 202.306793,823.195129 205.820038,812.817017 
	C206.231277,811.602234 205.616119,809.993835 206.132431,808.868774 
	C208.430603,803.860657 211.489014,799.141785 213.270294,793.972961 
	C215.034897,788.852600 213.044800,782.735840 218.353638,778.380920 
	C220.354355,776.739685 221.163437,773.129150 221.636978,770.270813 
	C222.260498,766.507263 222.985519,763.095642 226.421570,760.866638 
	C226.957581,760.518921 227.655396,759.911560 227.694000,759.381714 
	C228.362854,750.199341 234.952606,743.547791 237.922150,735.352112 
	C238.896545,732.662842 240.406631,730.167786 241.671967,727.584045 
	C243.093155,724.682068 244.477646,721.761353 245.947266,718.884094 
	C247.253723,716.326233 248.604950,713.788025 250.041275,711.301697 
	C250.529327,710.456848 251.720184,709.895142 251.940903,709.037109 
	C255.187027,696.417480 265.374725,686.911072 268.239410,674.456360 
	C270.215607,665.864624 277.307312,661.108826 280.216370,653.278137 
	C282.965424,645.878296 288.663727,639.549316 293.208893,632.846985 
	C301.045105,621.291626 307.086487,608.696472 315.365356,597.297058 
	C323.089813,586.661011 332.608887,577.261169 339.019196,565.907166 
	C344.560608,556.092285 352.535156,548.406372 358.740143,539.236328 
	C364.716187,530.404541 372.450012,522.765564 379.372406,514.569458 
	C384.449921,508.557678 389.241150,502.287903 394.554749,496.495239 
	C404.549622,485.599182 414.871948,475.004272 424.976990,464.208160 
	C432.165314,456.528320 439.042145,448.549377 446.393860,441.032440 
	C451.937469,435.364288 457.897217,430.083740 463.874756,424.863159 
	C479.497467,411.218781 494.893127,397.282288 511.030060,384.269226 
	C523.583008,374.146332 537.046448,365.140594 550.230774,355.815735 
	C564.011108,346.069305 577.640564,336.060303 591.884399,327.031250 
	C608.671387,316.390137 625.302368,305.486511 643.414124,296.959564 
	C658.416870,289.896301 672.499207,280.897583 687.387146,273.563934 
	C697.491943,268.586395 708.346680,265.152222 718.754822,260.764252 
	C732.529724,254.956863 746.102539,248.662125 759.944336,243.024063 
	C768.236450,239.646515 776.801636,236.876938 785.376038,234.267975 
	C801.603821,229.330322 818.355103,225.803986 834.098450,219.664398 
	C852.634338,212.435791 872.133057,210.087509 891.234680,206.055161 
	C916.545349,200.712067 941.864929,194.981064 967.953003,193.710327 
	C984.517029,192.903519 1000.984558,190.158340 1017.504333,188.364960 
	C1020.476624,188.042313 1023.492554,188.031631 1026.488403,188.028717 
	C1055.153809,188.000946 1083.833496,187.460419 1112.479004,188.213333 
	C1128.716187,188.640121 1144.897095,191.205795 1161.103760,192.803406 
	C1172.016113,193.879135 1182.929077,194.948257 1193.842163,196.016708 
	C1197.149536,196.340515 1200.501953,196.412521 1203.759033,197.008316 
	C1224.702271,200.839401 1245.738647,204.268402 1266.516602,208.860703 
	C1282.047974,212.293427 1297.269531,217.163132 1312.569702,221.597076 
	C1329.194824,226.414917 1345.933716,230.939255 1362.289673,236.561295 
	C1380.479248,242.813599 1398.743530,248.887314 1416.031006,257.670807 
	C1431.991699,265.780273 1448.706299,272.391998 1464.906738,280.048645 
	C1476.604858,285.577423 1488.005615,291.735565 1499.537109,297.616699 
	C1507.576660,301.716919 1512.096680,300.722260 1518.788452,294.272156 
	C1526.599487,286.743073 1534.910400,279.730774 1542.679932,272.161133 
	C1549.983765,265.045044 1556.723999,257.352692 1563.972656,250.176956 
	C1570.980591,243.239517 1578.557373,236.870255 1585.465576,229.839813 
	C1599.723999,215.328812 1617.752075,205.944229 1633.732178,193.785202 
	C1642.954224,186.768295 1652.010620,179.399704 1661.868530,173.379761 
	C1683.597046,160.110825 1702.030518,141.998535 1725.917358,131.792755 
	C1750.946655,121.098846 1775.283203,108.782532 1799.905762,97.139542 
	C1803.211304,95.576500 1806.466064,93.891342 1809.661621,92.113968 
	C1824.579590,83.816811 1840.425049,78.209480 1856.942139,73.794037 
	C1879.409546,67.787819 1901.991821,61.644413 1923.628784,53.249996 
	C1947.653076,43.929306 1972.759399,41.933006 1997.664307,38.054745 
	C2018.370850,34.830276 2039.092407,31.700312 2059.825439,28.651855 
	C2063.432129,28.121593 2067.127930,28.051683 2070.783936,28.031300 
	C2083.782959,27.958817 2096.787354,28.226225 2109.780762,27.945272 
	C2130.066406,27.506643 2150.366455,27.114429 2170.619385,25.975883 
	C2189.445801,24.917538 2207.776123,28.548903 2226.245361,30.729427 
	C2249.356689,33.458023 2272.502930,36.278931 2295.385986,40.429039 
	C2314.609863,43.915493 2334.124512,45.953114 2352.703613,53.285480 
	C2368.712646,59.603508 2385.564453,63.962353 2402.277588,68.281715 
	C2434.709717,76.663414 2464.893799,90.392952 2494.635254,105.392960 
	C2513.912354,115.115295 2533.487549,124.247650 2552.731445,134.033295 
	C2557.953369,136.688583 2562.469238,140.738815 2567.282715,144.186249 
	C2568.901367,145.345444 2570.290039,146.907516 2572.032715,147.798904 
	C2591.000732,157.500259 2607.820068,170.500061 2625.377686,182.367355 
	C2637.979248,190.884674 2651.224121,198.575180 2663.112061,207.985977 
	C2673.801270,216.447845 2685.705078,223.933899 2692.916016,236.280884 
	C2694.350830,238.737534 2697.126953,240.418579 2699.311035,242.428604 
	C2713.093018,255.112000 2727.032227,267.629883 2740.606934,280.531067 
	C2747.506592,287.088318 2753.753418,294.332214 2760.300781,301.260284 
	C2760.758057,301.744110 2761.181152,302.377655 2761.755127,302.615753 
	C2771.630371,306.712646 2774.979980,316.512634 2780.794922,324.185608 
	C2787.506348,333.041901 2794.469238,341.708618 2801.378418,350.413940 
	C2807.041748,357.549988 2812.875000,364.553619 2818.419922,371.779541 
	C2819.557617,373.262207 2819.504639,375.602600 2820.429443,377.316162 
	C2822.298584,380.780243 2824.042969,384.450409 2826.594238,387.377502 
	C2831.289551,392.765015 2836.532471,397.675110 2841.540771,402.790527 
	C2842.003174,403.263000 2842.815430,403.795715 2842.797852,404.276031 
	C2842.480957,412.959137 2850.729248,417.686462 2852.532227,425.430939 
	C2853.025635,427.549957 2854.857178,429.340515 2855.983398,431.333435 
	C2857.396973,433.834656 2858.687988,436.404785 2860.083740,438.916351 
	C2861.329834,441.158203 2862.542480,443.431091 2863.976074,445.550812 
	C2864.696777,446.616486 2866.730713,447.388306 2866.714355,448.265747 
	C2866.551758,456.946899 2874.718994,461.681122 2876.533447,469.422943 
	C2877.030273,471.543610 2878.904053,473.312927 2879.972656,475.335114 
	C2881.459717,478.149811 2882.882568,481.007660 2884.152832,483.925507 
	C2885.871094,487.872803 2886.327637,493.212982 2889.249512,495.630280 
	C2897.103516,502.128052 2898.772217,512.615051 2905.991699,519.342590 
	C2907.262451,520.526611 2907.274658,522.994568 2908.050049,524.790955 
	C2909.720215,528.659912 2911.657471,532.419189 2913.199707,536.335815 
	C2914.374268,539.319336 2914.972168,542.526062 2916.073730,545.543274 
	C2917.624512,549.790527 2919.482666,553.925110 2921.059326,558.163696 
	C2922.177490,561.170227 2922.956787,564.302185 2924.050781,567.318848 
	C2925.593994,571.573975 2927.260742,575.785522 2928.949463,579.985657 
	C2929.179199,580.557678 2930.234619,580.947144 2930.245850,581.436218 
	C2930.492676,592.256531 2937.791260,600.763489 2939.870605,610.899170 
	C2940.885742,615.846558 2941.286133,620.638184 2945.205811,624.484314 
	C2946.689941,625.940796 2947.490723,628.492920 2947.820557,630.664490 
	C2950.765137,650.049988 2955.600342,668.943787 2961.564941,687.613098 
	C2963.252441,692.896057 2963.722656,698.712585 2963.879395,704.308777 
	C2964.169678,714.671265 2965.101562,724.696899 2968.943604,734.579224 
	C2971.175293,740.318176 2971.212891,746.956543 2971.930420,753.225342 
	C2972.760742,760.481567 2973.306152,767.772278 2973.879639,775.055542 
	C2974.635742,784.659485 2975.716064,794.261597 2975.928467,803.880676 
	C2976.774170,842.157410 2977.487549,880.438904 2977.864502,918.722412 
	C2977.932373,925.598877 2976.057129,932.479797 2975.297119,939.382690 
	C2974.097900,950.274231 2972.517090,961.166199 2972.135254,972.094299 
	C2971.669434,985.425415 2971.690918,998.687988 2965.869141,1011.125854 
	C2965.038330,1012.901001 2964.230469,1015.075012 2964.491943,1016.910461 
	C2966.229736,1029.111938 2959.644043,1039.060303 2956.122314,1049.880005 
	C2951.485596,1064.125244 2946.995605,1078.477173 2947.963135,1093.811157 
	C2948.264160,1098.584106 2946.821533,1102.601929 2944.156006,1106.840698 
	C2941.642334,1110.838257 2940.819580,1116.146118 2940.173828,1121.000000 
	C2939.555176,1125.652588 2940.099609,1130.452148 2935.308838,1133.354736 
	C2935.034668,1133.520752 2934.708252,1133.797119 2934.640869,1134.078125 
	C2933.420654,1139.179199 2933.230713,1144.845215 2930.769043,1149.242432 
	C2928.244873,1153.751709 2923.979004,1157.003296 2923.796143,1163.031982 
	C2923.696289,1166.313110 2921.441895,1169.548340 2920.052002,1172.757812 
	C2919.666992,1173.646851 2918.428467,1174.340332 2918.376221,1175.173096 
	C2917.683350,1186.256592 2910.907227,1195.247314 2908.007324,1205.566162 
	C2907.148682,1208.621704 2905.699707,1211.521729 2904.390625,1214.434204 
	C2903.997314,1215.309204 2902.708496,1215.927124 2902.600586,1216.762573 
	C2901.300781,1226.817627 2894.444824,1233.560425 2888.685547,1241.062622 
	C2886.532959,1243.866455 2885.793701,1247.734131 2884.286133,1251.060547 
	C2882.817627,1254.300049 2881.150146,1257.448730 2879.646484,1260.672974 
	C2878.404053,1263.337769 2877.323730,1266.078491 2876.077637,1268.741577 
	C2874.859619,1271.344727 2873.607666,1273.939209 2872.211426,1276.448853 
	C2871.099854,1278.445923 2869.690674,1280.274780 2868.517090,1282.240112 
	C2866.708008,1285.269897 2864.890381,1288.302002 2863.261963,1291.429688 
	C2862.059082,1293.739868 2861.273438,1296.266724 2860.082031,1298.583984 
	C2858.640625,1301.388062 2857.347168,1304.404663 2855.311768,1306.738037 
	C2851.455566,1311.159546 2848.701904,1316.555298 2845.837891,1321.310791 
	C2840.517090,1330.145142 2834.142334,1337.646240 2827.261230,1345.072266 
	C2824.200195,1348.375732 2822.365479,1352.815063 2819.971924,1356.737427 
	C2816.746338,1362.023315 2813.906250,1367.597168 2810.217285,1372.536865 
	C2800.671875,1385.318115 2790.803223,1397.859619 2780.947266,1410.405640 
	C2778.328125,1413.739380 2775.356201,1416.807007 2772.431152,1419.887695 
	C2760.044922,1432.933960 2747.146729,1445.533936 2735.391602,1459.124023 
	C2729.157471,1466.331543 2723.353271,1473.812134 2715.822266,1479.732788 
	C2713.736572,1481.372192 2711.570557,1482.909180 2709.017578,1485.078369 
M418.441681,1781.385620 
	C424.595428,1787.937378 430.501923,1794.745728 436.965759,1800.975708 
	C444.974945,1808.695312 449.244995,1818.216919 451.927063,1828.700806 
	C452.650879,1831.530151 453.264252,1834.394775 454.135529,1837.178345 
	C461.451660,1860.552246 468.892029,1883.887573 476.113556,1907.290649 
	C477.965851,1913.293213 478.792938,1919.619141 480.743134,1925.583252 
	C488.588745,1949.577393 497.156433,1973.345093 504.548431,1997.474731 
	C510.404724,2016.591553 519.133301,2034.305908 528.221008,2053.402832 
	C541.658020,2086.979004 561.736145,2116.978027 579.237610,2148.373779 
	C613.251770,2209.391602 657.094727,2263.052979 705.409851,2312.841064 
	C743.863098,2352.467041 783.577637,2391.196777 831.130920,2420.460205 
	C831.696838,2420.808350 832.212463,2421.238281 832.751343,2421.630371 
	C880.026611,2456.038086 930.078613,2485.695801 983.357178,2509.867920 
	C997.609680,2516.333984 1011.285706,2524.346191 1025.977173,2529.514404 
	C1060.809082,2541.767822 1095.319580,2555.169922 1131.573242,2563.025146 
	C1164.084595,2570.069336 1195.723389,2580.958008 1228.889038,2585.133301 
	C1239.461060,2586.464111 1250.035767,2587.777588 1260.597778,2589.185303 
	C1300.501709,2594.502197 1340.343140,2600.551025 1380.835571,2597.902344 
	C1387.473755,2597.467773 1394.176025,2598.059326 1400.822144,2597.693848 
	C1431.071411,2596.031738 1461.364868,2594.812256 1491.533203,2592.182129 
	C1508.393921,2590.712402 1525.059692,2586.901855 1541.781494,2583.965088 
	C1593.317505,2574.914307 1644.085205,2562.981201 1693.647461,2545.843750 
	C1740.978149,2529.477539 1786.459961,2509.386719 1830.628662,2485.712891 
	C1865.060913,2467.257568 1898.876587,2448.230957 1929.573242,2423.921387 
	C1940.796143,2415.033691 1952.505981,2406.736572 1964.250610,2398.537842 
	C1984.238403,2384.584717 2002.393921,2368.508301 2020.637817,2352.386719 
	C2057.209961,2320.068115 2090.786621,2284.890381 2121.472900,2247.127686 
	C2153.660889,2207.517334 2181.044189,2164.387207 2206.766602,2120.371826 
	C2235.604980,2071.025391 2256.749756,2018.039062 2274.976807,1964.052612 
	C2292.135986,1913.230103 2302.822266,1860.703125 2310.101318,1807.582275 
	C2312.764893,1788.144165 2313.997559,1768.472900 2315.077148,1748.863770 
	C2316.559570,1721.934448 2317.275391,1694.963135 2318.917725,1666.667847 
	C2319.544678,1651.687378 2328.490723,1643.990723 2342.017578,1640.349487 
	C2347.809326,1638.790405 2353.637695,1637.366943 2359.430908,1635.813354 
	C2363.290527,1634.778076 2367.228271,1633.908936 2370.942627,1632.476440 
	C2418.490479,1614.138672 2466.356201,1596.762939 2511.487793,1572.492188 
	C2550.991943,1551.247803 2588.188232,1526.837524 2623.215088,1499.037842 
	C2644.877441,1481.845093 2667.390625,1465.324097 2686.817871,1445.809570 
	C2716.143555,1416.352051 2745.707275,1386.841309 2769.115967,1352.018921 
	C2788.427246,1323.292236 2810.984375,1296.820801 2826.958984,1265.758423 
	C2844.013184,1232.597046 2863.570801,1200.723633 2875.444824,1165.022827 
	C2881.224365,1147.646240 2888.509277,1130.774414 2894.885742,1113.590088 
	C2897.197510,1107.360229 2899.166992,1100.963379 2900.746826,1094.509277 
	C2907.718262,1066.026489 2914.595703,1037.519409 2921.272705,1008.966431 
	C2923.315186,1000.230652 2925.056396,991.375305 2926.158936,982.478455 
	C2928.821289,960.997253 2931.371582,939.490173 2933.290527,917.933228 
	C2934.527344,904.041260 2934.706055,890.046387 2935.071533,876.090027 
	C2935.210693,870.780579 2934.456787,865.453308 2934.261230,860.128601 
	C2933.404785,836.819275 2932.619385,813.507385 2931.759277,790.198181 
	C2931.673828,787.877441 2931.352783,785.553711 2930.982422,783.256958 
	C2926.528809,755.629822 2922.257080,727.970947 2917.492432,700.397217 
	C2914.493896,683.045471 2912.690918,665.471069 2906.047607,648.811157 
	C2898.150879,629.006714 2891.398193,608.749207 2883.855225,588.799438 
	C2877.498291,571.986755 2871.892090,554.744873 2863.859619,538.744141 
	C2851.010010,513.147461 2836.087402,488.600830 2822.672119,463.276001 
	C2809.370605,438.165985 2794.282227,414.333160 2776.679932,392.003113 
	C2763.890381,375.778473 2751.900635,358.925476 2739.410156,342.461792 
	C2736.200684,338.231720 2732.721680,334.129395 2728.900146,330.452972 
	C2700.796875,303.417206 2672.608398,276.469330 2644.348877,249.596970 
	C2640.748779,246.173782 2636.762207,243.080276 2632.647217,240.287308 
	C2602.034424,219.510132 2571.409424,198.749619 2540.629395,178.221741 
	C2533.449951,173.433502 2525.848389,169.182785 2518.116211,165.337677 
	C2500.212158,156.434265 2482.196045,147.743668 2464.061768,139.319031 
	C2447.461670,131.607071 2431.085449,123.069725 2413.828369,117.192841 
	C2384.824951,107.315796 2355.224609,99.180763 2325.820557,90.498093 
	C2319.137939,88.524742 2312.296143,86.893341 2305.416016,85.821693 
	C2284.353516,82.541077 2263.212646,79.763107 2242.146240,76.505272 
	C2211.811523,71.814087 2181.452881,68.560493 2150.626953,69.816086 
	C2126.661621,70.792236 2102.634277,70.208443 2078.636230,70.461357 
	C2073.322510,70.517349 2067.972412,70.874237 2062.712158,71.611549 
	C2042.259155,74.478310 2021.805176,77.363434 2001.409424,80.606194 
	C1981.374268,83.791618 1961.195190,85.973846 1941.704956,92.393250 
	C1914.172363,101.461563 1886.301270,109.499657 1858.612915,118.100227 
	C1853.858276,119.577179 1849.153564,121.370880 1844.661865,123.513145 
	C1809.164062,140.443069 1773.692505,157.429230 1738.296631,174.570786 
	C1732.627075,177.316498 1727.119141,180.560547 1721.970337,184.189682 
	C1692.002197,205.312164 1662.081421,226.504272 1632.338623,247.942139 
	C1624.803345,253.373444 1617.602173,259.395966 1610.889160,265.817596 
	C1585.840210,289.779114 1560.825562,313.786804 1536.293945,338.273926 
	C1526.945923,347.605011 1517.187988,352.498779 1503.003540,346.985748 
	C1484.713013,338.147461 1466.318848,329.516144 1448.153564,320.427399 
	C1411.146484,301.911285 1373.381958,285.019135 1333.941162,272.575653 
	C1280.199707,255.620331 1225.552979,242.199142 1169.233154,236.741898 
	C1148.679443,234.750290 1128.199219,231.200989 1107.612671,230.501587 
	C1053.564697,228.665405 999.573608,231.382858 946.118042,239.399338 
	C903.312561,245.818680 861.211182,255.804626 819.747009,268.847290 
	C780.197876,281.287476 741.911072,296.650360 704.541443,314.205170 
	C662.270752,334.062378 621.921082,357.504608 584.140808,385.153442 
	C579.572021,388.497040 574.488708,391.171204 570.095093,394.715088 
	C543.655334,416.041321 515.977478,436.076691 491.315613,459.306152 
	C454.226013,494.241516 418.680298,530.888245 388.748932,572.501038 
	C379.609680,585.207092 369.408813,597.145630 359.851868,609.557190 
	C356.200592,614.299133 352.871429,619.303223 349.598938,624.320496 
	C320.419067,669.057922 294.663849,715.669373 272.954987,764.496521 
	C270.248657,770.583557 266.754883,776.351685 264.412292,782.564087 
	C252.897980,813.099121 239.483093,843.134399 230.806046,874.472229 
	C217.229858,923.503662 203.529846,972.674500 198.884109,1023.777405 
	C195.841629,1057.244751 189.191040,1090.347290 189.604126,1124.182983 
	C189.835846,1143.162354 187.581833,1162.227539 188.651535,1181.129395 
	C190.946243,1221.677856 193.849564,1262.156738 199.827301,1302.466675 
	C208.906097,1363.688110 223.736389,1423.285522 244.114731,1481.632080 
	C259.637939,1526.077515 278.553375,1568.905884 301.252716,1610.226685 
	C330.037445,1662.625244 361.943115,1712.903809 398.402679,1760.253784 
	C404.028900,1767.560547 411.336884,1773.572266 418.441681,1781.385620 
z"/>
<path fill="#24666B" opacity="1.000000" stroke="none" 
	d="
M1504.119263,347.851868 
	C1517.187988,352.498779 1526.945923,347.605011 1536.293945,338.273926 
	C1560.825562,313.786804 1585.840210,289.779114 1610.889160,265.817596 
	C1617.602173,259.395966 1624.803345,253.373444 1632.338623,247.942139 
	C1662.081421,226.504272 1692.002197,205.312164 1721.970337,184.189682 
	C1727.119141,180.560547 1732.627075,177.316498 1738.296631,174.570786 
	C1773.692505,157.429230 1809.164062,140.443069 1844.661865,123.513145 
	C1849.153564,121.370880 1853.858276,119.577179 1858.612915,118.100227 
	C1886.301270,109.499657 1914.172363,101.461563 1941.704956,92.393250 
	C1961.195190,85.973846 1981.374268,83.791618 2001.409424,80.606194 
	C2021.805176,77.363434 2042.259155,74.478310 2062.712158,71.611549 
	C2067.972412,70.874237 2073.322510,70.517349 2078.636230,70.461357 
	C2102.634277,70.208443 2126.661621,70.792236 2150.626953,69.816086 
	C2181.452881,68.560493 2211.811523,71.814087 2242.146240,76.505272 
	C2263.212646,79.763107 2284.353516,82.541077 2305.416016,85.821693 
	C2312.296143,86.893341 2319.137939,88.524742 2325.820557,90.498093 
	C2355.224609,99.180763 2384.824951,107.315796 2413.828369,117.192841 
	C2431.085449,123.069725 2447.461670,131.607071 2464.061768,139.319031 
	C2482.196045,147.743668 2500.212158,156.434265 2518.116211,165.337677 
	C2525.848389,169.182785 2533.449951,173.433502 2540.629395,178.221741 
	C2571.409424,198.749619 2602.034424,219.510132 2632.647217,240.287308 
	C2636.762207,243.080276 2640.748779,246.173782 2644.348877,249.596970 
	C2672.608398,276.469330 2700.796875,303.417206 2728.900146,330.452972 
	C2732.721680,334.129395 2736.200684,338.231720 2739.410156,342.461792 
	C2751.900635,358.925476 2763.890381,375.778473 2776.679932,392.003113 
	C2794.282227,414.333160 2809.370605,438.165985 2822.672119,463.276001 
	C2836.087402,488.600830 2851.010010,513.147461 2863.859619,538.744141 
	C2871.892090,554.744873 2877.498291,571.986755 2883.855225,588.799438 
	C2891.398193,608.749207 2898.150879,629.006714 2906.047607,648.811157 
	C2912.690918,665.471069 2914.493896,683.045471 2917.492432,700.397217 
	C2922.257080,727.970947 2926.528809,755.629822 2930.982422,783.256958 
	C2931.352783,785.553711 2931.673828,787.877441 2931.759277,790.198181 
	C2932.619385,813.507385 2933.404785,836.819275 2934.261230,860.128601 
	C2934.456787,865.453308 2935.210693,870.780579 2935.071533,876.090027 
	C2934.706055,890.046387 2934.527344,904.041260 2933.290527,917.933228 
	C2931.371582,939.490173 2928.821289,960.997253 2926.158936,982.478455 
	C2925.056396,991.375305 2923.315186,1000.230652 2921.272705,1008.966431 
	C2914.595703,1037.519409 2907.718262,1066.026489 2900.746826,1094.509277 
	C2899.166992,1100.963379 2897.197510,1107.360229 2894.885742,1113.590088 
	C2888.509277,1130.774414 2881.224365,1147.646240 2875.444824,1165.022827 
	C2863.570801,1200.723633 2844.013184,1232.597046 2826.958984,1265.758423 
	C2810.984375,1296.820801 2788.427246,1323.292236 2769.115967,1352.018921 
	C2745.707275,1386.841309 2716.143555,1416.352051 2686.817871,1445.809570 
	C2667.390625,1465.324097 2644.877441,1481.845093 2623.215088,1499.037842 
	C2588.188232,1526.837524 2550.991943,1551.247803 2511.487793,1572.492188 
	C2466.356201,1596.762939 2418.490479,1614.138672 2370.942627,1632.476440 
	C2367.228271,1633.908936 2363.290527,1634.778076 2359.430908,1635.813354 
	C2353.637695,1637.366943 2347.809326,1638.790405 2342.017578,1640.349487 
	C2328.490723,1643.990723 2319.544678,1651.687378 2317.803711,1667.398193 
	C2304.945312,1670.450195 2293.228516,1672.923950 2281.451416,1675.066162 
	C2238.833496,1682.817871 2195.853516,1687.372437 2152.545410,1687.660400 
	C2127.288330,1687.828491 2101.948242,1687.400879 2076.779053,1685.484619 
	C2051.293457,1683.544189 2025.883179,1680.016846 2000.608154,1676.099609 
	C1980.259766,1672.945923 1960.162231,1668.173950 1939.236816,1663.863037 
	C1929.735718,1661.767334 1920.951172,1659.928345 1912.101685,1657.242310 
	C1913.265869,1645.485718 1915.062256,1634.605347 1915.619995,1623.661743 
	C1917.466553,1587.429321 1917.666504,1551.236328 1914.478882,1514.992554 
	C1910.583984,1470.707397 1902.735107,1427.286865 1889.618652,1384.825806 
	C1872.370239,1328.988403 1847.871582,1276.817871 1811.117920,1230.938721 
	C1784.721191,1197.987915 1753.536133,1170.842407 1714.646973,1153.527222 
	C1679.387329,1137.828003 1642.743408,1132.448608 1604.461060,1139.710815 
	C1564.702759,1147.252930 1530.679565,1165.978882 1500.654663,1192.423584 
	C1475.233521,1214.813477 1454.126221,1240.898926 1436.334717,1269.709106 
	C1434.851562,1272.110718 1432.491821,1273.970947 1429.868042,1275.847656 
	C1427.208130,1272.559082 1424.911377,1269.660767 1423.280518,1266.426758 
	C1412.494019,1245.035522 1401.266235,1223.840454 1391.282227,1202.076782 
	C1370.406494,1156.571411 1354.817505,1109.204224 1342.935181,1060.568726 
	C1333.912720,1023.639282 1328.483643,986.124817 1323.651123,947.595215 
	C1323.605103,943.697815 1323.569824,940.702087 1323.335571,937.721985 
	C1322.294312,924.464600 1320.580444,911.227722 1320.231812,897.953979 
	C1319.103149,854.984375 1320.540039,812.103394 1325.937866,769.399109 
	C1329.949341,737.663208 1335.170044,706.158752 1342.736084,675.060120 
	C1359.922729,604.417114 1385.576050,536.969238 1420.657349,473.322174 
	C1434.299683,448.571289 1449.771973,424.770752 1465.390747,401.186493 
	C1477.510864,382.885498 1491.153564,365.592804 1504.119263,347.851868 
z"/>
<path fill="#28CAD4" opacity="1.000000" stroke="none" 
	d="
M1323.570190,948.504150 
	C1328.483643,986.124817 1333.912720,1023.639282 1342.935181,1060.568726 
	C1354.817505,1109.204224 1370.406494,1156.571411 1391.282227,1202.076782 
	C1401.266235,1223.840454 1412.494019,1245.035522 1423.280518,1266.426758 
	C1424.911377,1269.660767 1427.208130,1272.559082 1429.856689,1276.606689 
	C1429.100098,1280.923340 1427.987549,1284.417725 1426.222046,1287.543091 
	C1397.439209,1338.498413 1380.397461,1393.695068 1368.343628,1450.510010 
	C1364.495117,1468.649902 1363.560303,1487.422729 1361.544434,1505.933594 
	C1354.506836,1570.562378 1357.235352,1634.847046 1369.238892,1698.692749 
	C1381.273804,1762.704468 1402.389282,1823.432861 1436.545776,1879.207153 
	C1459.575439,1916.812744 1487.808716,1949.784668 1524.316650,1975.059570 
	C1555.920044,1996.938843 1590.596313,2010.385742 1629.329712,2012.057007 
	C1674.719849,2014.015625 1715.271729,1999.950439 1752.019165,1974.098999 
	C1798.719360,1941.246094 1831.302979,1896.635132 1856.768311,1846.373291 
	C1876.721191,1806.991577 1891.256836,1765.602905 1900.606201,1722.441650 
	C1903.335083,1709.844116 1905.681030,1697.159546 1907.982910,1684.474976 
	C1909.572632,1675.715210 1910.785400,1666.887085 1912.166626,1658.089478 
	C1920.951172,1659.928345 1929.735718,1661.767334 1939.263184,1664.790894 
	C1939.385010,1682.593872 1939.492432,1699.279419 1937.964111,1715.813843 
	C1935.915161,1737.981934 1933.266724,1760.141724 1929.691528,1782.112305 
	C1922.170776,1828.329956 1908.667236,1872.978394 1891.327393,1916.386475 
	C1875.853027,1955.125122 1856.679321,1992.025146 1834.600952,2027.508789 
	C1806.842529,2072.121582 1774.362427,2112.969482 1737.941162,2150.624512 
	C1720.612549,2168.540039 1702.046997,2185.389160 1682.989868,2201.475342 
	C1644.452759,2234.003906 1602.897461,2262.390137 1558.587158,2286.480713 
	C1500.668823,2317.969971 1439.795898,2342.210205 1375.839722,2358.501709 
	C1345.158569,2366.316895 1314.185547,2372.501953 1282.750000,2376.555176 
	C1249.054321,2380.899414 1215.298706,2384.129150 1181.312134,2383.899902 
	C1163.355103,2383.778809 1145.368042,2383.223877 1127.460205,2381.944092 
	C1103.588501,2380.238770 1079.625122,2378.694092 1055.977173,2375.207764 
	C1002.471619,2367.320068 950.163879,2354.439941 899.308167,2335.624512 
	C855.746704,2319.507568 813.726074,2300.298584 773.665039,2276.830811 
	C704.175354,2236.123779 642.114746,2186.370361 588.563660,2125.991211 
	C569.294739,2104.265137 551.229980,2081.721680 534.550171,2057.998779 
	C532.900452,2055.652100 530.329895,2053.953125 528.186584,2051.953613 
	C519.133301,2034.305908 510.404724,2016.591553 504.548431,1997.474731 
	C497.156433,1973.345093 488.588745,1949.577393 480.743134,1925.583252 
	C478.792938,1919.619141 477.965851,1913.293213 476.113556,1907.290649 
	C468.892029,1883.887573 461.451660,1860.552246 454.135529,1837.178345 
	C453.264252,1834.394775 452.650879,1831.530151 451.927063,1828.700806 
	C449.244995,1818.216919 444.974945,1808.695312 436.965759,1800.975708 
	C430.501923,1794.745728 424.595428,1787.937378 418.236938,1779.921631 
	C417.785278,1776.141357 417.547607,1773.824341 417.290100,1771.509277 
	C414.311310,1744.726562 410.034729,1718.007324 408.721924,1691.143311 
	C407.473724,1665.601196 408.845276,1639.887695 409.922180,1614.285522 
	C411.507782,1576.590820 417.701141,1539.504883 426.192383,1502.767700 
	C438.787537,1448.275024 457.970123,1396.155396 483.212433,1346.338135 
	C508.457672,1296.514771 539.439148,1250.388306 575.493469,1207.704468 
	C597.878296,1181.203735 621.819214,1156.203003 647.943665,1133.351440 
	C649.700867,1131.814331 652.391418,1131.344482 654.517700,1131.169189 
	C648.536682,1156.163696 643.783325,1180.506226 641.191284,1205.356689 
	C636.649841,1248.896118 636.562744,1292.311646 642.068054,1335.715454 
	C649.637573,1395.393188 666.087524,1452.366699 694.889893,1505.424194 
	C714.281860,1541.146729 738.623413,1572.997070 769.417297,1599.807739 
	C800.863342,1627.185913 837.458252,1644.315918 878.088806,1651.314697 
	C894.730957,1654.181641 912.606995,1652.185425 929.633362,1650.074951 
	C974.530273,1644.510254 1012.307434,1623.367432 1045.065186,1593.046631 
	C1089.837402,1551.605225 1119.446655,1500.303589 1139.661743,1443.325806 
	C1157.604126,1392.753052 1166.551636,1340.518921 1168.703735,1286.843628 
	C1170.799072,1234.587402 1165.360962,1183.367554 1152.647827,1132.761108 
	C1141.202515,1087.202026 1123.588745,1044.318359 1098.492798,1004.499329 
	C1085.095093,983.241516 1068.960205,964.264832 1052.563110,945.436279 
	C1057.026733,944.066345 1060.853882,942.837524 1064.773804,942.338135 
	C1100.039917,937.845154 1135.417969,935.239319 1171.010620,935.521301 
	C1201.229126,935.760742 1231.438354,935.877258 1261.459961,939.852722 
	C1282.181885,942.596741 1302.868042,945.610779 1323.570190,948.504150 
z"/>
<path fill="#2E8A90" opacity="1.000000" stroke="none" 
	d="
M1323.651123,947.595215 
	C1302.868042,945.610779 1282.181885,942.596741 1261.459961,939.852722 
	C1231.438354,935.877258 1201.229126,935.760742 1171.010620,935.521301 
	C1135.417969,935.239319 1100.039917,937.845154 1064.773804,942.338135 
	C1060.853882,942.837524 1057.026733,944.066345 1051.962402,945.167786 
	C1037.253906,934.583923 1024.449341,922.716492 1010.082703,913.209839 
	C976.445923,890.951843 939.101929,879.542542 898.591309,880.684082 
	C856.311890,881.875610 818.441650,896.427246 784.554321,921.375732 
	C736.808044,956.527283 704.525146,1003.695984 680.335876,1056.981812 
	C669.585327,1080.663940 661.525635,1105.322754 654.647827,1130.378174 
	C652.391418,1131.344482 649.700867,1131.814331 647.943665,1133.351440 
	C621.819214,1156.203003 597.878296,1181.203735 575.493469,1207.704468 
	C539.439148,1250.388306 508.457672,1296.514771 483.212433,1346.338135 
	C457.970123,1396.155396 438.787537,1448.275024 426.192383,1502.767700 
	C417.701141,1539.504883 411.507782,1576.590820 409.922180,1614.285522 
	C408.845276,1639.887695 407.473724,1665.601196 408.721924,1691.143311 
	C410.034729,1718.007324 414.311310,1744.726562 417.290100,1771.509277 
	C417.547607,1773.824341 417.785278,1776.141357 417.949646,1779.320190 
	C411.336884,1773.572266 404.028900,1767.560547 398.402679,1760.253784 
	C361.943115,1712.903809 330.037445,1662.625244 301.252716,1610.226685 
	C278.553375,1568.905884 259.637939,1526.077515 244.114731,1481.632080 
	C223.736389,1423.285522 208.906097,1363.688110 199.827301,1302.466675 
	C193.849564,1262.156738 190.946243,1221.677856 188.651535,1181.129395 
	C187.581833,1162.227539 189.835846,1143.162354 189.604126,1124.182983 
	C189.191040,1090.347290 195.841629,1057.244751 198.884109,1023.777405 
	C203.529846,972.674500 217.229858,923.503662 230.806046,874.472229 
	C239.483093,843.134399 252.897980,813.099121 264.412292,782.564087 
	C266.754883,776.351685 270.248657,770.583557 272.954987,764.496521 
	C294.663849,715.669373 320.419067,669.057922 349.598938,624.320496 
	C352.871429,619.303223 356.200592,614.299133 359.851868,609.557190 
	C369.408813,597.145630 379.609680,585.207092 388.748932,572.501038 
	C418.680298,530.888245 454.226013,494.241516 491.315613,459.306152 
	C515.977478,436.076691 543.655334,416.041321 570.095093,394.715088 
	C574.488708,391.171204 579.572021,388.497040 584.140808,385.153442 
	C621.921082,357.504608 662.270752,334.062378 704.541443,314.205170 
	C741.911072,296.650360 780.197876,281.287476 819.747009,268.847290 
	C861.211182,255.804626 903.312561,245.818680 946.118042,239.399338 
	C999.573608,231.382858 1053.564697,228.665405 1107.612671,230.501587 
	C1128.199219,231.200989 1148.679443,234.750290 1169.233154,236.741898 
	C1225.552979,242.199142 1280.199707,255.620331 1333.941162,272.575653 
	C1373.381958,285.019135 1411.146484,301.911285 1448.153564,320.427399 
	C1466.318848,329.516144 1484.713013,338.147461 1503.561401,347.418823 
	C1491.153564,365.592804 1477.510864,382.885498 1465.390747,401.186493 
	C1449.771973,424.770752 1434.299683,448.571289 1420.657349,473.322174 
	C1385.576050,536.969238 1359.922729,604.417114 1342.736084,675.060120 
	C1335.170044,706.158752 1329.949341,737.663208 1325.937866,769.399109 
	C1320.540039,812.103394 1319.103149,854.984375 1320.231812,897.953979 
	C1320.580444,911.227722 1322.294312,924.464600 1323.335571,937.721985 
	C1323.569824,940.702087 1323.605103,943.697815 1323.651123,947.595215 
z"/>
<path fill="#1FAFB8" opacity="1.000000" stroke="none" 
	d="
M528.203796,2052.678223 
	C530.329895,2053.953125 532.900452,2055.652100 534.550171,2057.998779 
	C551.229980,2081.721680 569.294739,2104.265137 588.563660,2125.991211 
	C642.114746,2186.370361 704.175354,2236.123779 773.665039,2276.830811 
	C813.726074,2300.298584 855.746704,2319.507568 899.308167,2335.624512 
	C950.163879,2354.439941 1002.471619,2367.320068 1055.977173,2375.207764 
	C1079.625122,2378.694092 1103.588501,2380.238770 1127.460205,2381.944092 
	C1145.368042,2383.223877 1163.355103,2383.778809 1181.312134,2383.899902 
	C1215.298706,2384.129150 1249.054321,2380.899414 1282.750000,2376.555176 
	C1314.185547,2372.501953 1345.158569,2366.316895 1375.839722,2358.501709 
	C1439.795898,2342.210205 1500.668823,2317.969971 1558.587158,2286.480713 
	C1602.897461,2262.390137 1644.452759,2234.003906 1682.989868,2201.475342 
	C1702.046997,2185.389160 1720.612549,2168.540039 1737.941162,2150.624512 
	C1774.362427,2112.969482 1806.842529,2072.121582 1834.600952,2027.508789 
	C1856.679321,1992.025146 1875.853027,1955.125122 1891.327393,1916.386475 
	C1908.667236,1872.978394 1922.170776,1828.329956 1929.691528,1782.112305 
	C1933.266724,1760.141724 1935.915161,1737.981934 1937.964111,1715.813843 
	C1939.492432,1699.279419 1939.385010,1682.593872 1939.979736,1665.047729 
	C1960.162231,1668.173950 1980.259766,1672.945923 2000.608154,1676.099609 
	C2025.883179,1680.016846 2051.293457,1683.544189 2076.779053,1685.484619 
	C2101.948242,1687.400879 2127.288330,1687.828491 2152.545410,1687.660400 
	C2195.853516,1687.372437 2238.833496,1682.817871 2281.451416,1675.066162 
	C2293.228516,1672.923950 2304.945312,1670.450195 2317.504883,1668.069214 
	C2317.275391,1694.963135 2316.559570,1721.934448 2315.077148,1748.863770 
	C2313.997559,1768.472900 2312.764893,1788.144165 2310.101318,1807.582275 
	C2302.822266,1860.703125 2292.135986,1913.230103 2274.976807,1964.052612 
	C2256.749756,2018.039062 2235.604980,2071.025391 2206.766602,2120.371826 
	C2181.044189,2164.387207 2153.660889,2207.517334 2121.472900,2247.127686 
	C2090.786621,2284.890381 2057.209961,2320.068115 2020.637817,2352.386719 
	C2002.393921,2368.508301 1984.238403,2384.584717 1964.250610,2398.537842 
	C1952.505981,2406.736572 1940.796143,2415.033691 1929.573242,2423.921387 
	C1898.876587,2448.230957 1865.060913,2467.257568 1830.628662,2485.712891 
	C1786.459961,2509.386719 1740.978149,2529.477539 1693.647461,2545.843750 
	C1644.085205,2562.981201 1593.317505,2574.914307 1541.781494,2583.965088 
	C1525.059692,2586.901855 1508.393921,2590.712402 1491.533203,2592.182129 
	C1461.364868,2594.812256 1431.071411,2596.031738 1400.822144,2597.693848 
	C1394.176025,2598.059326 1387.473755,2597.467773 1380.835571,2597.902344 
	C1340.343140,2600.551025 1300.501709,2594.502197 1260.597778,2589.185303 
	C1250.035767,2587.777588 1239.461060,2586.464111 1228.889038,2585.133301 
	C1195.723389,2580.958008 1164.084595,2570.069336 1131.573242,2563.025146 
	C1095.319580,2555.169922 1060.809082,2541.767822 1025.977173,2529.514404 
	C1011.285706,2524.346191 997.609680,2516.333984 983.357178,2509.867920 
	C930.078613,2485.695801 880.026611,2456.038086 832.751343,2421.630371 
	C832.212463,2421.238281 831.696838,2420.808350 831.130920,2420.460205 
	C783.577637,2391.196777 743.863098,2352.467041 705.409851,2312.841064 
	C657.094727,2263.052979 613.251770,2209.391602 579.237610,2148.373779 
	C561.736145,2116.978027 541.658020,2086.979004 528.203796,2052.678223 
z"/>
<path fill="#062022" opacity="1.000000" stroke="none" 
	d="
M1912.101685,1657.242310 
	C1910.785400,1666.887085 1909.572632,1675.715210 1907.982910,1684.474976 
	C1905.681030,1697.159546 1903.335083,1709.844116 1900.606201,1722.441650 
	C1891.256836,1765.602905 1876.721191,1806.991577 1856.768311,1846.373291 
	C1831.302979,1896.635132 1798.719360,1941.246094 1752.019165,1974.098999 
	C1715.271729,1999.950439 1674.719849,2014.015625 1629.329712,2012.057007 
	C1590.596313,2010.385742 1555.920044,1996.938843 1524.316650,1975.059570 
	C1487.808716,1949.784668 1459.575439,1916.812744 1436.545776,1879.207153 
	C1402.389282,1823.432861 1381.273804,1762.704468 1369.238892,1698.692749 
	C1357.235352,1634.847046 1354.506836,1570.562378 1361.544434,1505.933594 
	C1363.560303,1487.422729 1364.495117,1468.649902 1368.343628,1450.510010 
	C1380.397461,1393.695068 1397.439209,1338.498413 1426.222046,1287.543091 
	C1427.987549,1284.417725 1429.100098,1280.923340 1430.527832,1276.841675 
	C1432.491821,1273.970947 1434.851562,1272.110718 1436.334717,1269.709106 
	C1454.126221,1240.898926 1475.233521,1214.813477 1500.654663,1192.423584 
	C1530.679565,1165.978882 1564.702759,1147.252930 1604.461060,1139.710815 
	C1642.743408,1132.448608 1679.387329,1137.828003 1714.646973,1153.527222 
	C1753.536133,1170.842407 1784.721191,1197.987915 1811.117920,1230.938721 
	C1847.871582,1276.817871 1872.370239,1328.988403 1889.618652,1384.825806 
	C1902.735107,1427.286865 1910.583984,1470.707397 1914.478882,1514.992554 
	C1917.666504,1551.236328 1917.466553,1587.429321 1915.619995,1623.661743 
	C1915.062256,1634.605347 1913.265869,1645.485718 1912.101685,1657.242310 
M1649.393677,1284.771729 
	C1643.815918,1268.791504 1632.780029,1257.556030 1617.871704,1250.379272 
	C1610.330322,1246.748657 1602.141602,1243.887451 1593.932129,1242.322510 
	C1563.518311,1236.524780 1535.579346,1241.922241 1512.574219,1263.856445 
	C1500.317139,1275.542725 1493.997925,1290.902344 1498.731445,1307.268921 
	C1505.294312,1329.960327 1522.767578,1343.109009 1544.819092,1350.007690 
	C1561.572754,1355.248901 1578.730469,1355.350342 1595.588745,1353.739014 
	C1591.088379,1363.758911 1586.343262,1373.677124 1582.128052,1383.815430 
	C1557.762451,1442.417480 1547.042358,1503.774292 1546.139404,1566.952759 
	C1545.883057,1584.891602 1546.433716,1602.933228 1548.120117,1620.785522 
	C1550.307129,1643.936523 1552.903809,1667.155518 1557.281738,1689.969727 
	C1565.496338,1732.777954 1580.015381,1773.445557 1602.404785,1811.133179 
	C1618.288574,1837.869507 1637.851685,1860.973755 1664.451294,1877.687134 
	C1686.206177,1891.356323 1709.814941,1897.357544 1735.110229,1892.936035 
	C1762.608154,1888.129761 1785.516235,1873.565796 1804.613281,1853.875732 
	C1828.302002,1829.451294 1845.380981,1800.327026 1857.797729,1768.807129 
	C1865.470825,1749.328857 1871.531860,1729.148926 1877.241455,1708.979614 
	C1885.792480,1678.772217 1890.477783,1647.723511 1891.622437,1616.436523 
	C1892.311646,1597.594116 1893.541992,1578.744873 1892.541260,1559.694214 
	C1890.913818,1528.711182 1888.272949,1498.050537 1882.226440,1467.588501 
	C1872.991943,1421.065674 1857.919678,1376.831665 1832.214722,1336.745239 
	C1814.381592,1308.934814 1792.936279,1284.915649 1761.889771,1270.679443 
	C1733.295288,1257.567139 1705.174072,1257.954346 1677.029053,1270.708862 
	C1667.676636,1274.947144 1659.077515,1280.847412 1649.393677,1284.771729 
z"/>
<path fill="#062122" opacity="1.000000" stroke="none" 
	d="
M654.517700,1131.169067 
	C661.525635,1105.322754 669.585327,1080.663940 680.335876,1056.981812 
	C704.525146,1003.695984 736.808044,956.527283 784.554321,921.375732 
	C818.441650,896.427246 856.311890,881.875610 898.591309,880.684082 
	C939.101929,879.542542 976.445923,890.951843 1010.082703,913.209839 
	C1024.449341,922.716492 1037.253906,934.583923 1051.368896,945.647095 
	C1068.960205,964.264832 1085.095093,983.241516 1098.492798,1004.499329 
	C1123.588745,1044.318359 1141.202515,1087.202026 1152.647827,1132.761108 
	C1165.360962,1183.367554 1170.799072,1234.587402 1168.703735,1286.843628 
	C1166.551636,1340.518921 1157.604126,1392.753052 1139.661743,1443.325806 
	C1119.446655,1500.303589 1089.837402,1551.605225 1045.065186,1593.046631 
	C1012.307434,1623.367432 974.530273,1644.510254 929.633362,1650.074951 
	C912.606995,1652.185425 894.730957,1654.181641 878.088806,1651.314697 
	C837.458252,1644.315918 800.863342,1627.185913 769.417297,1599.807739 
	C738.623413,1572.997070 714.281860,1541.146729 694.889893,1505.424194 
	C666.087524,1452.366699 649.637573,1395.393188 642.068054,1335.715454 
	C636.562744,1292.311646 636.649841,1248.896118 641.191284,1205.356689 
	C643.783325,1180.506226 648.536682,1156.163696 654.517700,1131.169067 
M892.389160,984.370972 
	C864.751831,968.061340 835.327026,964.192261 804.490112,972.561707 
	C789.885254,976.525574 776.413208,983.201172 766.927795,995.572266 
	C762.614014,1001.198364 758.038208,1006.898926 757.959167,1014.869751 
	C757.755188,1035.430542 773.273865,1055.551880 793.977966,1062.254639 
	C809.015198,1067.122925 824.265381,1069.807373 839.911438,1071.545044 
	C838.297424,1076.964844 836.892456,1082.457397 835.036377,1087.792969 
	C819.695618,1131.891846 812.776917,1177.639038 810.361633,1223.948242 
	C808.437012,1260.849243 810.098511,1297.792114 815.729431,1334.485596 
	C823.571533,1385.587769 837.061218,1434.781494 863.042847,1479.924072 
	C876.136047,1502.673462 892.146057,1523.078857 913.778442,1538.319946 
	C942.358643,1558.455811 972.958862,1564.822998 1006.226807,1550.323486 
	C1030.176392,1539.885132 1048.203979,1522.548950 1063.404297,1501.872070 
	C1079.696777,1479.709473 1091.696899,1455.336548 1101.440308,1429.643311 
	C1118.135742,1385.617310 1126.605469,1339.840332 1129.518311,1293.181763 
	C1130.730591,1273.765259 1131.719482,1254.177368 1130.561157,1234.452759 
	C1129.135376,1210.176514 1127.629761,1185.984985 1123.958130,1161.963135 
	C1117.369141,1118.854126 1104.996094,1077.485474 1085.234131,1038.530151 
	C1069.970947,1008.443115 1050.353394,981.870789 1021.807251,962.784546 
	C1005.791138,952.076111 987.913879,946.838440 969.032898,946.816772 
	C951.063049,946.796143 934.076355,952.661560 919.274292,962.866272 
	C910.078247,969.206238 902.207703,977.468994 892.389160,984.370972 
z"/>
<path fill="#253030" opacity="1.000000" stroke="none" 
	d="
M1650.133911,1285.987793 
	C1659.077515,1280.847412 1667.676636,1274.947144 1677.029053,1270.708862 
	C1705.174072,1257.954346 1733.295288,1257.567139 1761.889771,1270.679443 
	C1792.936279,1284.915649 1814.381592,1308.934814 1832.214722,1336.745239 
	C1857.919678,1376.831665 1872.991943,1421.065674 1882.226440,1467.588501 
	C1888.272949,1498.050537 1890.913818,1528.711182 1892.541260,1559.694214 
	C1893.541992,1578.744873 1892.311646,1597.594116 1891.622437,1616.436523 
	C1890.477783,1647.723511 1885.792480,1678.772217 1877.241455,1708.979614 
	C1871.531860,1729.148926 1865.470825,1749.328857 1857.797729,1768.807129 
	C1845.380981,1800.327026 1828.302002,1829.451294 1804.613281,1853.875732 
	C1785.516235,1873.565796 1762.608154,1888.129761 1735.110229,1892.936035 
	C1709.814941,1897.357544 1686.206177,1891.356323 1664.451294,1877.687134 
	C1637.851685,1860.973755 1618.288574,1837.869507 1602.404785,1811.133179 
	C1580.015381,1773.445557 1565.496338,1732.777954 1557.281738,1689.969727 
	C1552.903809,1667.155518 1550.307129,1643.936523 1548.120117,1620.785522 
	C1546.433716,1602.933228 1545.883057,1584.891602 1546.139404,1566.952759 
	C1547.042358,1503.774292 1557.762451,1442.417480 1582.128052,1383.815430 
	C1586.343262,1373.677124 1591.088379,1363.758911 1596.490967,1352.788330 
	C1599.595215,1351.220093 1601.825195,1350.687988 1603.994019,1349.970337 
	C1614.701782,1346.427734 1624.616821,1341.475342 1633.133911,1333.903809 
	C1647.617798,1321.027588 1653.268433,1305.082275 1650.133911,1285.987793 
z"/>
<path fill="#CCCCCC" opacity="1.000000" stroke="none" 
	d="
M1649.763794,1285.379761 
	C1653.268433,1305.082275 1647.617798,1321.027588 1633.133911,1333.903809 
	C1624.616821,1341.475342 1614.701782,1346.427734 1603.994019,1349.970337 
	C1601.825195,1350.687988 1599.595215,1351.220093 1596.671753,1352.115234 
	C1578.730469,1355.350342 1561.572754,1355.248901 1544.819092,1350.007690 
	C1522.767578,1343.109009 1505.294312,1329.960327 1498.731445,1307.268921 
	C1493.997925,1290.902344 1500.317139,1275.542725 1512.574219,1263.856445 
	C1535.579346,1241.922241 1563.518311,1236.524780 1593.932129,1242.322510 
	C1602.141602,1243.887451 1610.330322,1246.748657 1617.871704,1250.379272 
	C1632.780029,1257.556030 1643.815918,1268.791504 1649.763794,1285.379761 
z"/>
<path fill="#253030" opacity="1.000000" stroke="none" 
	d="
M893.742188,984.868652 
	C902.207703,977.468994 910.078247,969.206238 919.274292,962.866272 
	C934.076355,952.661560 951.063049,946.796143 969.032898,946.816772 
	C987.913879,946.838440 1005.791138,952.076111 1021.807251,962.784546 
	C1050.353394,981.870789 1069.970947,1008.443115 1085.234131,1038.530151 
	C1104.996094,1077.485474 1117.369141,1118.854126 1123.958130,1161.963135 
	C1127.629761,1185.984985 1129.135376,1210.176514 1130.561157,1234.452759 
	C1131.719482,1254.177368 1130.730591,1273.765259 1129.518311,1293.181763 
	C1126.605469,1339.840332 1118.135742,1385.617310 1101.440308,1429.643311 
	C1091.696899,1455.336548 1079.696777,1479.709473 1063.404297,1501.872070 
	C1048.203979,1522.548950 1030.176392,1539.885132 1006.226807,1550.323486 
	C972.958862,1564.822998 942.358643,1558.455811 913.778442,1538.319946 
	C892.146057,1523.078857 876.136047,1502.673462 863.042847,1479.924072 
	C837.061218,1434.781494 823.571533,1385.587769 815.729431,1334.485596 
	C810.098511,1297.792114 808.437012,1260.849243 810.361633,1223.948242 
	C812.776917,1177.639038 819.695618,1131.891846 835.036377,1087.792969 
	C836.892456,1082.457397 838.297424,1076.964844 840.765503,1070.554199 
	C849.104980,1068.416382 856.747314,1067.877563 864.043274,1065.995850 
	C879.323853,1062.054810 893.053528,1055.308228 903.837280,1043.091064 
	C915.218140,1030.197632 915.354309,1007.131165 903.524414,994.715637 
	C900.333496,991.366699 897.006653,988.147400 893.742188,984.868652 
z"/>
<path fill="#CCCCCC" opacity="1.000000" stroke="none" 
	d="
M893.065674,984.619751 
	C897.006653,988.147400 900.333496,991.366699 903.524414,994.715637 
	C915.354309,1007.131165 915.218140,1030.197632 903.837280,1043.091064 
	C893.053528,1055.308228 879.323853,1062.054810 864.043274,1065.995850 
	C856.747314,1067.877563 849.104980,1068.416382 840.816406,1069.778931 
	C824.265381,1069.807373 809.015198,1067.122925 793.977966,1062.254639 
	C773.273865,1055.551880 757.755188,1035.430542 757.959167,1014.869751 
	C758.038208,1006.898926 762.614014,1001.198364 766.927795,995.572266 
	C776.413208,983.201172 789.885254,976.525574 804.490112,972.561707 
	C835.327026,964.192261 864.751831,968.061340 893.065674,984.619751 
z"/>
</svg>